<?xml version="1.0" encoding="UTF-8" standalone="no"?>
<svg
   viewBox="0 0 200 200"
   version="1.1"
   id="svg73"
   sodipodi:docname="WX Vector.svg"
   inkscape:version="1.3.2 (091e20e, 2023-11-25)"
   width="200"
   height="200"
   xmlns:inkscape="http://www.inkscape.org/namespaces/inkscape"
   xmlns:sodipodi="http://sodipodi.sourceforge.net/DTD/sodipodi-0.dtd"
   xmlns="http://www.w3.org/2000/svg"
   xmlns:svg="http://www.w3.org/2000/svg">
  <sodipodi:namedview
     id="namedview73"
     pagecolor="#505050"
     bordercolor="#eeeeee"
     borderopacity="1"
     inkscape:showpageshadow="0"
     inkscape:pageopacity="0"
     inkscape:pagecheckerboard="0"
     inkscape:deskcolor="#505050"
     inkscape:zoom="1.4549958"
     inkscape:cx="138.83201"
     inkscape:cy="110.30959"
     inkscape:window-width="1352"
     inkscape:window-height="774"
     inkscape:window-x="0"
     inkscape:window-y="35"
     inkscape:window-maximized="0"
     inkscape:current-layer="uuid-8dcc1437-d484-4c50-a0dc-9b24bc7c7dbb" />
  <defs
     id="defs1">
    <style
       id="style1">
      .uuid-b70e3c18-638c-44d6-950a-87b3aa780578, .uuid-dd4d19ef-8e6b-4bb9-8833-09844a5bfec6, .uuid-abeb1b11-f8b2-4d5a-87fa-8c826f7e0aef, .uuid-cc7bc90c-79a2-4f32-92aa-242f1418aed9, .uuid-2b2e937c-555a-4d8b-b2b0-41ded15e1e1b {
        stroke: #21367c;
        stroke-linecap: round;
        stroke-linejoin: round;
        stroke-width: 28.1px;
      }

      .uuid-b70e3c18-638c-44d6-950a-87b3aa780578, .uuid-13be0b7f-44fb-4ab7-b830-37f1c231d241 {
        fill: #83c1ff;
      }

      .uuid-dd4d19ef-8e6b-4bb9-8833-09844a5bfec6 {
        stroke-dasharray: 154.04;
      }

      .uuid-dd4d19ef-8e6b-4bb9-8833-09844a5bfec6, .uuid-abeb1b11-f8b2-4d5a-87fa-8c826f7e0aef {
        fill: none;
      }

      .uuid-7130f92a-b340-49b3-8e93-7aa2b397fad0, .uuid-2b2e937c-555a-4d8b-b2b0-41ded15e1e1b {
        fill: #fff;
      }

      .uuid-099bf7dd-5ba1-4fc7-8f75-6a79f551cd74 {
        fill: #21367c;
      }

      .uuid-cc7bc90c-79a2-4f32-92aa-242f1418aed9, .uuid-aac34914-eadb-47e4-af59-2a78e5bc3bef {
        fill: #ffbf61;
      }

      .uuid-9f4cab77-a394-4479-ab48-4798391b6b3b {
        fill: #bbe5ff;
      }
    </style>
  </defs>
  <g
     id="uuid-8dcc1437-d484-4c50-a0dc-9b24bc7c7dbb"
     data-name="Ñëîé 1"
     transform="matrix(0.09831446,0,0,0.09737472,-149.17505,-82.279628)">
    <g
       id="g73"
       style="display:inline">
      <circle
         class="uuid-9f4cab77-a394-4479-ab48-4798391b6b3b"
         cx="2534.47"
         cy="1871.9399"
         r="983.28998"
         id="circle40"
         style="display:inline;stroke:#21367c;stroke-width:27;stroke-dasharray:none;stroke-opacity:1" />
      <g
         id="g52"
         style="display:inline"
         transform="translate(-46.303978,663.69036)">
        <path
           class="uuid-13be0b7f-44fb-4ab7-b830-37f1c231d241"
           d="m 2758.28,1481.06 c 33.2,48.05 84.1,84.35 146.83,87.72 80.67,4.34 151.83,-44.2 180.17,-115.31 17.24,28.4 47.73,48.08 83.41,50 57.4,3.09 106.43,-40.94 109.52,-98.34 1.23,-22.81 -5.07,-44.23 -16.61,-62.04 81.49,-16.13 144.94,-85.58 149.6,-172.34 5.52,-102.62 -73.19,-190.28 -175.81,-195.8 -15.19,-0.82 -29.98,0.42 -44.29,3.09 4.29,-10.49 7.02,-21.81 7.66,-33.76 3.09,-57.4 -40.94,-106.43 -98.34,-109.52 -43.53,-2.34 -82.2,22.45 -99.72,59.59 -22.67,-56.8 -76.55,-98.33 -141.63,-101.83 -25.65,-1.38 -50.29,3.12 -72.34,12.76 -45.84,20.03 -78.12,51.12 -95.46,91.17 -17.34,40.06 -43.64,490.85 -43.64,490.85 l 13.55,41.45 c 0,0 27.5,15.15 70.15,-2.79 8.38,21.39 8.82,28.83 26.96,55.08 z"
           id="path41" />
        <circle
           class="uuid-aac34914-eadb-47e4-af59-2a78e5bc3bef"
           cx="2217.75"
           cy="1168.72"
           r="331.32001"
           id="circle41" />
        <path
           class="uuid-2b2e937c-555a-4d8b-b2b0-41ded15e1e1b"
           d="m 3131.16,1244.3 -164.97,-99.08 v -109.84 c 0,-19.99 -16.21,-36.2 -36.2,-36.2 h -55.46 c -19.99,0 -36.2,16.21 -36.2,36.2 v 33.04 c 0,0 -119.38,-71.7 -119.38,-71.7 0.62,-29.71 0.93,-56.24 0.93,-78.34 0,-215.61 -30.62,-340.64 -99.09,-340.64 -68.47,0 -99.09,125.03 -99.09,340.64 0,22.11 0.29,48.66 0.88,78.41 l -121.17,72.78 v -34.19 c 0,-19.99 -16.21,-36.2 -36.2,-36.2 h -55.46 c -19.99,0 -36.2,16.21 -36.2,36.2 v 110.98 l -163.06,97.94 c -3.78,2.27 -6.09,6.35 -6.09,10.76 v 62.03 c 0,8.31 7.93,14.32 15.93,12.09 l 410.05,-114.55 c 6.08,120.56 15.56,249.91 29.04,353.04 l -147.36,70.66 c -6.28,3.01 -10.27,9.36 -10.27,16.32 v 45.67 c 0,11.74 11.01,20.38 22.42,17.58 l 154.14,-37.84 c 11.96,53.22 26.03,86.11 42.46,86.11 16.43,0 29.86,-32.96 41.71,-86.29 l 154.88,38.03 c 11.41,2.8 22.42,-5.83 22.42,-17.58 v -45.68 c 0,-6.96 -4,-13.31 -10.27,-16.32 l -148.16,-71.05 c 13.49,-103.11 23.17,-232.34 29.45,-352.79 l 410.5,114.68 c 8,2.24 15.93,-3.78 15.93,-12.09 v -62.03 c 0,-4.41 -2.31,-8.49 -6.09,-10.76 z"
           id="path42" />
        <path
           class="uuid-abeb1b11-f8b2-4d5a-87fa-8c826f7e0aef"
           d="m 2476.49,1375.69 c -60.72,75.8 -154.06,124.35 -258.73,124.35 -182.98,0 -331.32,-148.34 -331.32,-331.32 0,-182.98 148.34,-331.32 331.32,-331.32 96.59,0 183.52,41.33 244.08,107.26"
           id="path43" />
        <line
           class="uuid-abeb1b11-f8b2-4d5a-87fa-8c826f7e0aef"
           x1="2217.75"
           y1="765.39001"
           x2="2217.75"
           y2="670.09003"
           id="line43" />
        <line
           class="uuid-abeb1b11-f8b2-4d5a-87fa-8c826f7e0aef"
           x1="2042.76"
           y1="805.34003"
           x2="2001.41"
           y2="719.46997"
           id="line44" />
        <line
           class="uuid-abeb1b11-f8b2-4d5a-87fa-8c826f7e0aef"
           x1="1902.42"
           y1="917.25"
           x2="1827.91"
           y2="857.83002"
           id="line45" />
        <line
           class="uuid-abeb1b11-f8b2-4d5a-87fa-8c826f7e0aef"
           x1="1824.54"
           y1="1078.97"
           x2="1731.63"
           y2="1057.76"
           id="line46" />
        <line
           class="uuid-abeb1b11-f8b2-4d5a-87fa-8c826f7e0aef"
           x1="1824.54"
           y1="1258.46"
           x2="1731.63"
           y2="1279.67"
           id="line47" />
        <line
           class="uuid-abeb1b11-f8b2-4d5a-87fa-8c826f7e0aef"
           x1="1902.42"
           y1="1420.1801"
           x2="1827.91"
           y2="1479.6"
           id="line48" />
        <line
           class="uuid-abeb1b11-f8b2-4d5a-87fa-8c826f7e0aef"
           x1="2042.76"
           y1="1532.1"
           x2="2001.41"
           y2="1617.96"
           id="line49" />
        <line
           class="uuid-abeb1b11-f8b2-4d5a-87fa-8c826f7e0aef"
           x1="2217.75"
           y1="1572.04"
           x2="2217.75"
           y2="1667.34"
           id="line50" />
        <line
           class="uuid-abeb1b11-f8b2-4d5a-87fa-8c826f7e0aef"
           x1="2392.75"
           y1="1532.1"
           x2="2408.95"
           y2="1565.74"
           id="line51" />
        <line
           class="uuid-abeb1b11-f8b2-4d5a-87fa-8c826f7e0aef"
           x1="2392.75"
           y1="805.34003"
           x2="2434.1001"
           y2="719.46997"
           id="line52" />
        <path
           class="uuid-abeb1b11-f8b2-4d5a-87fa-8c826f7e0aef"
           d="m 2758.28,1481.06 c 30.43,49.85 84.1,84.35 146.83,87.72 80.67,4.34 151.83,-44.2 180.17,-115.31 17.24,28.4 47.73,48.08 83.41,50 57.4,3.09 106.43,-40.94 109.52,-98.34 1.23,-22.81 -5.07,-44.23 -16.61,-62.04 81.49,-16.13 144.94,-85.58 149.6,-172.34 5.52,-102.62 -73.19,-190.28 -175.81,-195.8 -15.19,-0.82 -29.98,0.42 -44.29,3.09 4.29,-10.49 7.02,-21.81 7.66,-33.76 3.09,-57.4 -40.94,-106.43 -98.34,-109.52 -43.53,-2.34 -82.2,22.45 -99.72,59.59 -22.67,-56.8 -76.55,-98.33 -141.63,-101.83 -25.65,-1.38 -50.22,3.29 -72.34,12.76"
           id="path52" />
      </g>
    </g>
  </g>
</svg>
